<?xml version="1.0" encoding="UTF-8"?>
<!DOCTYPE svg PUBLIC "-//W3C//DTD SVG 1.1//EN" "http://www.w3.org/Graphics/SVG/1.1/DTD/svg11.dtd">
<svg xmlns="http://www.w3.org/2000/svg" version="1.1" width="32px" height="32px" style="shape-rendering:geometricPrecision; text-rendering:geometricPrecision; image-rendering:optimizeQuality; fill-rule:evenodd; clip-rule:evenodd" xmlns:xlink="http://www.w3.org/1999/xlink">
<g><path style="opacity:0.732" fill="#4794ff" d="M 4.5,-0.5 C 5.5,-0.5 6.5,-0.5 7.5,-0.5C 10.1926,2.51023 9.52593,4.84356 5.5,6.5C 4.83333,5.83333 4.16667,5.16667 3.5,4.5C 2.41741,7.13808 1.08408,9.47141 -0.5,11.5C -0.5,8.83333 -0.5,6.16667 -0.5,3.5C 1.55115,2.51288 3.21781,1.17954 4.5,-0.5 Z"/></g>
<g><path style="opacity:0.949" fill="#fa8c00" d="M 10.5,1.5 C 14.0641,2.42266 17.7307,2.75599 21.5,2.5C 21.5,3.83333 21.5,5.16667 21.5,6.5C 17.8212,6.27558 14.1545,5.94225 10.5,5.5C 10.5,4.16667 10.5,2.83333 10.5,1.5 Z"/></g>
<g><path style="opacity:1" fill="#d37900" d="M 10.5,-0.5 C 17.5,-0.5 24.5,-0.5 31.5,-0.5C 31.5,1.83333 31.5,4.16667 31.5,6.5C 28.1667,6.5 24.8333,6.5 21.5,6.5C 21.5,5.16667 21.5,3.83333 21.5,2.5C 17.7307,2.75599 14.0641,2.42266 10.5,1.5C 10.5,0.833333 10.5,0.166667 10.5,-0.5 Z"/></g>
<g><path style="opacity:0.974" fill="#c17205" d="M 10.5,5.5 C 14.1545,5.94225 17.8212,6.27558 21.5,6.5C 24.8333,6.5 28.1667,6.5 31.5,6.5C 31.5,7.83333 31.5,9.16667 31.5,10.5C 24.4707,10.3769 17.4707,10.7103 10.5,11.5C 10.5,9.5 10.5,7.5 10.5,5.5 Z"/></g>
<g><path style="opacity:1" fill="#e58200" d="M 31.5,10.5 C 31.5,11.8333 31.5,13.1667 31.5,14.5C 24.5,14.5 17.5,14.5 10.5,14.5C 10.5,13.5 10.5,12.5 10.5,11.5C 17.4707,10.7103 24.4707,10.3769 31.5,10.5 Z"/></g>
<g><path style="opacity:1" fill="#c97400" d="M -0.5,16.5 C 6.5,16.5 13.5,16.5 20.5,16.5C 20.5,17.5 20.5,18.5 20.5,19.5C 13.4122,19.7955 6.41215,19.4621 -0.5,18.5C -0.5,17.8333 -0.5,17.1667 -0.5,16.5 Z"/></g>
<g><path style="opacity:1" fill="#e48100" d="M -0.5,18.5 C 6.41215,19.4621 13.4122,19.7955 20.5,19.5C 20.5,22.1667 20.5,24.8333 20.5,27.5C 20.1667,27.5 19.8333,27.5 19.5,27.5C 19.5,26.1667 19.5,24.8333 19.5,23.5C 12.8039,23.609 6.13728,23.2757 -0.5,22.5C -0.5,21.1667 -0.5,19.8333 -0.5,18.5 Z"/></g>
<g><path style="opacity:0.777" fill="#6d73e2" d="M 31.5,19.5 C 31.5,22.1667 31.5,24.8333 31.5,27.5C 29.4489,28.4871 27.7822,29.8205 26.5,31.5C 25.5,31.5 24.5,31.5 23.5,31.5C 20.8074,28.4898 21.4741,26.1564 25.5,24.5C 26.1667,25.1667 26.8333,25.8333 27.5,26.5C 28.5826,23.8619 29.9159,21.5286 31.5,19.5 Z"/></g>
<g><path style="opacity:1" fill="#be6f03" d="M -0.5,22.5 C 6.13728,23.2757 12.8039,23.609 19.5,23.5C 19.5,24.8333 19.5,26.1667 19.5,27.5C 12.8039,27.391 6.13728,27.7243 -0.5,28.5C -0.5,26.5 -0.5,24.5 -0.5,22.5 Z"/></g>
<g><path style="opacity:1" fill="#e68200" d="M 19.5,27.5 C 19.8333,27.5 20.1667,27.5 20.5,27.5C 20.5,28.8333 20.5,30.1667 20.5,31.5C 13.5,31.5 6.5,31.5 -0.5,31.5C -0.5,30.5 -0.5,29.5 -0.5,28.5C 6.13728,27.7243 12.8039,27.391 19.5,27.5 Z"/></g>
</svg>
